<svg width="16" height="20" viewBox="0 0 16 20" fill="none" xmlns="http://www.w3.org/2000/svg">
<path d="M0.0786133 16.97C0.0786133 18.9654 1.10402 20 3.08092 20H12.9193C14.8962 20 15.9216 18.9654 15.9216 16.97V3.03002C15.9216 1.04388 14.8962 0 12.9193 0H3.08092C1.10402 0 0.0786133 1.04388 0.0786133 3.03002V16.97ZM1.88924 16.8591V3.14088C1.88924 2.28176 2.33265 1.81062 3.22873 1.81062H12.7622C13.6583 1.81062 14.1109 2.28176 14.1109 3.14088V16.8591C14.1109 17.7182 13.6583 18.1894 12.7622 18.1894H3.22873C2.33265 18.1894 1.88924 17.7182 1.88924 16.8591ZM4.62365 5.60739H11.3858C11.7183 5.60739 11.977 5.34873 11.977 5.01617C11.977 4.69284 11.7183 4.44342 11.3858 4.44342H4.62365C4.28185 4.44342 4.02319 4.69284 4.02319 5.01617C4.02319 5.34873 4.28185 5.60739 4.62365 5.60739ZM4.62365 8.76674H11.3858C11.7183 8.76674 11.977 8.50808 11.977 8.17552C11.977 7.85219 11.7183 7.60277 11.3858 7.60277H4.62365C4.28185 7.60277 4.02319 7.85219 4.02319 8.17552C4.02319 8.50808 4.28185 8.76674 4.62365 8.76674ZM4.62365 11.9261H7.89386C8.22642 11.9261 8.47584 11.6767 8.47584 11.3533C8.47584 11.0208 8.22642 10.7529 7.89386 10.7529H4.62365C4.28185 10.7529 4.02319 11.0208 4.02319 11.3533C4.02319 11.6767 4.28185 11.9261 4.62365 11.9261Z" fill="white"/>
</svg>
