<svg width="20" height="21" viewBox="0 0 20 21" fill="none" xmlns="http://www.w3.org/2000/svg">
<path d="M10 20.8599C15.4695 20.8599 20 16.339 20 10.8599C20 5.39036 15.4695 0.859863 9.99032 0.859863C4.52081 0.859863 0 5.39036 0 10.8599C0 16.339 4.53049 20.8599 10 20.8599ZM10 14.1996C7.24105 14.1996 5.11133 15.1774 4.09487 16.31C2.77832 14.887 1.97483 12.9702 1.97483 10.8599C1.97483 6.40681 5.53727 2.83469 9.99032 2.83469C14.4434 2.83469 18.0252 6.40681 18.0348 10.8599C18.0348 12.9702 17.2314 14.887 15.9148 16.3197C14.8887 15.1774 12.759 14.1996 10 14.1996ZM10 12.612C11.878 12.6217 13.3301 11.0244 13.3301 8.94312C13.3301 6.98765 11.8683 5.36132 10 5.36132C8.14134 5.36132 6.66021 6.98765 6.66989 8.94312C6.67957 11.0244 8.13165 12.5927 10 12.612Z" fill="white"/>
</svg>
