<svg width="21" height="12" viewBox="0 0 21 12" fill="none" xmlns="http://www.w3.org/2000/svg">
<path d="M1.45271 11.8637H13.9214C13.7058 11.5299 13.5737 11.1266 13.5668 10.6676C13.5668 10.4242 13.5668 10.1947 13.5598 9.95132H4.40821V2.15577C4.40821 1.74548 4.63074 1.52295 5.04798 1.52295H18.8519C18.8171 0.521558 18.226 0 17.1968 0H4.69332C3.56676 0 2.88526 0.632823 2.88526 1.79416V9.95132H1.45271C0.931154 9.95132 0.5 10.3825 0.5 10.911C0.5 11.4325 0.931154 11.8637 1.45271 11.8637ZM15.806 11.9332H19.1439C19.9923 11.9332 20.5 11.4256 20.5 10.5981V3.68567C20.5 2.85118 19.9923 2.34353 19.1439 2.34353H15.806C14.9437 2.34353 14.4221 2.85118 14.4221 3.67872V10.5981C14.4221 11.4256 14.9437 11.9332 15.806 11.9332ZM15.9242 10.7928C15.6599 10.7928 15.5209 10.6537 15.5209 10.3755V3.90125C15.5209 3.62309 15.6599 3.48401 15.9242 3.48401H16.1745C16.2024 3.48401 16.2232 3.49791 16.2232 3.53268V3.60223C16.2232 3.84562 16.3901 4.01252 16.6266 4.01252H18.2955C18.532 4.01252 18.7058 3.84562 18.7058 3.60223V3.53268C18.7058 3.49791 18.7197 3.48401 18.7476 3.48401H19.0049C19.2622 3.48401 19.4013 3.63004 19.4013 3.90125V10.3755C19.4013 10.6467 19.2622 10.7928 19.0049 10.7928H15.9242ZM16.5223 10.4103H18.3999C18.5459 10.4103 18.6572 10.3129 18.6572 10.1599C18.6572 10.0139 18.5459 9.9096 18.3999 9.9096H16.5223C16.3762 9.9096 16.2719 10.0139 16.2719 10.1599C16.2719 10.3129 16.3693 10.4103 16.5223 10.4103Z" fill="white"/>
</svg>
