<svg width="40" height="44" viewBox="0 0 40 44" fill="none" xmlns="http://www.w3.org/2000/svg">
<path fill-rule="evenodd" clip-rule="evenodd" d="M39.6296 2.99552C39.6296 4.64991 38.3031 5.99105 36.6667 5.99105C35.0303 5.99105 33.7037 4.64991 33.7037 2.99552C33.7037 1.34114 35.0303 0 36.6667 0C38.3031 0 39.6296 1.34114 39.6296 2.99552ZM30.5556 7.86325C32.0897 7.86325 33.3333 6.60593 33.3333 5.05495C33.3333 3.50397 32.0897 2.24665 30.5556 2.24665C29.0214 2.24665 27.7778 3.50397 27.7778 5.05495C27.7778 6.60593 29.0214 7.86325 30.5556 7.86325ZM27.7778 8.61213C27.7778 10.0597 26.617 11.2332 25.1852 11.2332C23.7533 11.2332 22.5926 10.0597 22.5926 8.61213C22.5926 7.16454 23.7533 5.99104 25.1852 5.99104C26.617 5.99104 27.7778 7.16454 27.7778 8.61213ZM17.5926 19.8453C18.7176 19.8453 19.6296 18.9233 19.6296 17.7859C19.6296 16.6485 18.7176 15.7265 17.5926 15.7265C16.4676 15.7265 15.5556 16.6485 15.5556 17.7859C15.5556 18.9233 16.4676 19.8453 17.5926 19.8453ZM15.3704 24.7131C16.2908 24.7131 17.037 23.9587 17.037 23.0281C17.037 22.0975 16.2908 21.3431 15.3704 21.3431C14.4499 21.3431 13.7037 22.0975 13.7037 23.0281C13.7037 23.9587 14.4499 24.7131 15.3704 24.7131ZM20.7407 14.9776C21.968 14.9776 22.963 13.9718 22.963 12.731C22.963 11.4902 21.968 10.4843 20.7407 10.4843C19.5134 10.4843 18.5185 11.4902 18.5185 12.731C18.5185 13.9718 19.5134 14.9776 20.7407 14.9776ZM2.96296 24.3386C4.59936 24.3386 5.92593 22.9975 5.92593 21.3431C5.92593 19.6887 4.59936 18.3476 2.96296 18.3476C1.32656 18.3476 0 19.6887 0 21.3431C0 22.9975 1.32656 24.3386 2.96296 24.3386ZM11.1111 25.6492C11.1111 27.2001 9.86745 28.4575 8.33333 28.4575C6.7992 28.4575 5.55555 27.2001 5.55555 25.6492C5.55555 24.0982 6.7992 22.8409 8.33333 22.8409C9.86745 22.8409 11.1111 24.0982 11.1111 25.6492ZM13.8889 30.7041C15.2185 30.7041 16.2963 29.6144 16.2963 28.2702C16.2963 26.9261 15.2185 25.8364 13.8889 25.8364C12.5593 25.8364 11.4815 26.9261 11.4815 28.2702C11.4815 29.6144 12.5593 30.7041 13.8889 30.7041ZM21.8518 29.9552C21.8518 31.196 20.8569 32.2019 19.6296 32.2019C18.4023 32.2019 17.4074 31.196 17.4074 29.9552C17.4074 28.7144 18.4023 27.7086 19.6296 27.7086C20.8569 27.7086 21.8518 28.7144 21.8518 29.9552ZM31.6667 31.0786C32.5871 31.0786 33.3333 30.3242 33.3333 29.3936C33.3333 28.463 32.5871 27.7086 31.6667 27.7086C30.7462 27.7086 30 28.463 30 29.3936C30 30.3242 30.7462 31.0786 31.6667 31.0786ZM25.7407 32.2019C26.8658 32.2019 27.7778 31.2798 27.7778 30.1425C27.7778 29.0051 26.8658 28.083 25.7407 28.083C24.6157 28.083 23.7037 29.0051 23.7037 30.1425C23.7037 31.2798 24.6157 32.2019 25.7407 32.2019ZM30.3704 12.1693C30.3704 13.0999 29.6242 13.8543 28.7037 13.8543C27.7832 13.8543 27.037 13.0999 27.037 12.1693C27.037 11.2387 27.7832 10.4843 28.7037 10.4843C29.6242 10.4843 30.3704 11.2387 30.3704 12.1693ZM34.4444 17.037C34.4444 18.1744 33.5324 19.0965 32.4074 19.0965C31.2824 19.0965 30.3704 18.1744 30.3704 17.037C30.3704 15.8996 31.2824 14.9776 32.4074 14.9776C33.5324 14.9776 34.4444 15.8996 34.4444 17.037ZM35.1852 24.3386C36.4125 24.3386 37.4074 23.3328 37.4074 22.092C37.4074 20.8512 36.4125 19.8453 35.1852 19.8453C33.9579 19.8453 32.963 20.8512 32.963 22.092C32.963 23.3328 33.9579 24.3386 35.1852 24.3386ZM38.8889 27.8958C38.8889 29.24 37.8111 30.3297 36.4815 30.3297C35.1519 30.3297 34.0741 29.24 34.0741 27.8958C34.0741 26.5516 35.1519 25.462 36.4815 25.462C37.8111 25.462 38.8889 26.5516 38.8889 27.8958ZM37.2222 37.0696C38.7563 37.0696 40 35.8123 40 34.2613C40 32.7103 38.7563 31.453 37.2222 31.453C35.6881 31.453 34.4444 32.7103 34.4444 34.2613C34.4444 35.8123 35.6881 37.0696 37.2222 37.0696ZM38.8889 40.814C38.8889 42.4684 37.5623 43.8095 35.9259 43.8095C34.2895 43.8095 32.963 42.4684 32.963 40.814C32.963 39.1596 34.2895 37.8185 35.9259 37.8185C37.5623 37.8185 38.8889 39.1596 38.8889 40.814Z" fill="#F8F9FA"/>
</svg>
