<svg width="32" height="32" viewBox="0 0 32 32" fill="none" xmlns="http://www.w3.org/2000/svg">
<path d="M16 32C24.7512 32 32 24.7667 32 16C32 7.24879 24.7512 0 15.9845 0C7.2333 0 0 7.24879 0 16C0 24.7667 7.24879 32 16 32ZM16 21.3437C11.5857 21.3437 8.17812 22.908 6.55179 24.7202C4.4453 22.4434 3.15973 19.3766 3.15973 16C3.15973 8.87512 8.85963 3.15973 15.9845 3.15973C23.1094 3.15973 28.8403 8.87512 28.8558 16C28.8558 19.3766 27.5702 22.4434 25.4637 24.7357C23.8219 22.908 20.4143 21.3437 16 21.3437ZM16 18.8035C19.0048 18.819 21.3282 16.2633 21.3282 12.9332C21.3282 9.80445 18.9894 7.20232 16 7.20232C13.0261 7.20232 10.6563 9.80445 10.6718 12.9332C10.6873 16.2633 13.0106 18.7725 16 18.8035Z" fill="#495057"/>
</svg>
