<svg width="177" height="42" viewBox="0 0 177 42" fill="none" xmlns="http://www.w3.org/2000/svg">
<path d="M16.7598 30.4317L12.5699 24.7473L9.2511 30.4317H0.331878L8.08953 18.7L0 7.81498H9.12665L13.3166 13.4994L16.6769 7.81498H25.5961L17.6725 19.3451L25.8865 30.4317H16.7598Z" fill="#364FC7"/>
<path d="M24.8879 19.1032C24.8879 16.7649 25.3858 14.7223 26.3814 12.9753C27.377 11.2283 28.7599 9.88448 30.5299 8.9438C32.3275 8.00312 34.3741 7.53277 36.6696 7.53277C39.6289 7.53277 42.118 8.32564 44.1369 9.91136C46.1558 11.4702 47.4557 13.6606 48.0364 16.4827H39.4076C38.9098 15.0045 37.9418 14.2654 36.5037 14.2654C35.4804 14.2654 34.6645 14.682 34.0561 15.5151C33.4753 16.3214 33.1849 17.5174 33.1849 19.1032C33.1849 20.6889 33.4753 21.8983 34.0561 22.7315C34.6645 23.5647 35.4804 23.9813 36.5037 23.9813C37.9695 23.9813 38.9375 23.2422 39.4076 21.764H48.0364C47.4557 24.5591 46.1558 26.7496 44.1369 28.3353C42.118 29.921 39.6289 30.7139 36.6696 30.7139C34.3741 30.7139 32.3275 30.2435 30.5299 29.3029C28.7599 28.3622 27.377 27.0183 26.3814 25.2714C25.3858 23.5244 24.8879 21.4683 24.8879 19.1032Z" fill="#364FC7"/>
<path d="M64.6479 7.6134C67.3029 7.6134 69.4048 8.48689 70.9535 10.2339C72.53 11.954 73.3182 14.2922 73.3182 17.2487V30.4317H65.1872V18.2969C65.1872 17.0068 64.8415 15.9989 64.15 15.2732C63.4586 14.5207 62.5321 14.1444 61.3706 14.1444C60.1537 14.1444 59.1995 14.5207 58.5081 15.2732C57.8167 15.9989 57.471 17.0068 57.471 18.2969V30.4317H49.34V0.598602H57.471V11.0402C58.1901 10.0189 59.158 9.19912 60.3749 8.58096C61.6195 7.93592 63.0438 7.6134 64.6479 7.6134Z" fill="#364FC7"/>
<path d="M74.378 19.1032C74.378 16.7649 74.8067 14.7223 75.664 12.9753C76.549 11.2283 77.7383 9.88448 79.2317 8.9438C80.7528 8.00312 82.4399 7.53277 84.2928 7.53277C85.8969 7.53277 87.2797 7.84186 88.4413 8.46002C89.6029 9.07818 90.5017 9.91136 91.1378 10.9595V7.81498H99.2689V30.4317H91.1378V27.2871C90.5017 28.3353 89.5891 29.1685 88.3998 29.7866C87.2383 30.4048 85.8693 30.7139 84.2928 30.7139C82.4399 30.7139 80.7528 30.2435 79.2317 29.3029C77.7383 28.3622 76.549 27.0183 75.664 25.2714C74.8067 23.4975 74.378 21.4414 74.378 19.1032ZM91.1378 19.1032C91.1378 17.6518 90.723 16.5096 89.8933 15.6764C89.0912 14.8432 88.0956 14.4266 86.9064 14.4266C85.6895 14.4266 84.68 14.8432 83.878 15.6764C83.076 16.4827 82.6749 17.625 82.6749 19.1032C82.6749 20.5545 83.076 21.7102 83.878 22.5703C84.68 23.4034 85.6895 23.82 86.9064 23.82C88.0956 23.82 89.0912 23.4034 89.8933 22.5703C90.723 21.7371 91.1378 20.5814 91.1378 19.1032Z" fill="#364FC7"/>
<path d="M117.053 7.6134C119.736 7.6134 121.865 8.48689 123.442 10.2339C125.018 11.954 125.806 14.2922 125.806 17.2487V30.4317H117.675V18.2969C117.675 17.0068 117.329 15.9989 116.638 15.2732C115.947 14.5207 115.02 14.1444 113.859 14.1444C112.642 14.1444 111.687 14.5207 110.996 15.2732C110.305 15.9989 109.959 17.0068 109.959 18.2969V30.4317H101.828V7.81498H109.959V11.0402C110.678 10.0189 111.646 9.19912 112.863 8.58096C114.08 7.93592 115.476 7.6134 117.053 7.6134Z" fill="#364FC7"/>
<path d="M136.781 7.53277C138.357 7.53277 139.726 7.84186 140.888 8.46002C142.077 9.07818 142.99 9.91136 143.626 10.9595V7.81498H151.757V30.1898C151.757 32.313 151.342 34.2213 150.512 35.9145C149.683 37.6346 148.383 39.0053 146.613 40.0266C144.87 41.0479 142.658 41.5586 139.975 41.5586C136.38 41.5586 133.504 40.7389 131.346 39.0994C129.189 37.4599 127.958 35.2292 127.654 32.4071H135.661C135.827 33.1328 136.242 33.6972 136.905 34.1003C137.569 34.5035 138.426 34.7051 139.477 34.7051C142.243 34.7051 143.626 33.2 143.626 30.1898V27.2871C142.99 28.3353 142.077 29.1685 140.888 29.7866C139.726 30.4048 138.357 30.7139 136.781 30.7139C134.928 30.7139 133.241 30.2435 131.72 29.3029C130.226 28.3622 129.037 27.0183 128.152 25.2714C127.295 23.4975 126.866 21.4414 126.866 19.1032C126.866 16.7649 127.295 14.7223 128.152 12.9753C129.037 11.2283 130.226 9.88448 131.72 8.9438C133.241 8.00312 134.928 7.53277 136.781 7.53277ZM143.626 19.1032C143.626 17.6518 143.211 16.5096 142.381 15.6764C141.579 14.8432 140.584 14.4266 139.394 14.4266C138.177 14.4266 137.168 14.8432 136.366 15.6764C135.564 16.4827 135.163 17.625 135.163 19.1032C135.163 20.5545 135.564 21.7102 136.366 22.5703C137.168 23.4034 138.177 23.82 139.394 23.82C140.584 23.82 141.579 23.4034 142.381 22.5703C143.211 21.7371 143.626 20.5814 143.626 19.1032Z" fill="#364FC7"/>
<path d="M176.552 18.8613C176.552 19.4794 176.51 20.0976 176.427 20.7158H161.036C161.119 21.9521 161.465 22.8793 162.074 23.4975C162.71 24.0888 163.512 24.3844 164.48 24.3844C165.835 24.3844 166.803 23.7931 167.384 22.6106H176.054C175.694 24.1694 174.989 25.567 173.938 26.8033C172.915 28.0128 171.615 28.9669 170.039 29.6657C168.462 30.3645 166.72 30.7139 164.812 30.7139C162.516 30.7139 160.469 30.2435 158.672 29.3029C156.902 28.3622 155.505 27.0183 154.482 25.2714C153.486 23.5244 152.988 21.4683 152.988 19.1032C152.988 16.738 153.486 14.6954 154.482 12.9753C155.477 11.2283 156.86 9.88448 158.63 8.9438C160.428 8.00312 162.488 7.53277 164.812 7.53277C167.107 7.53277 169.14 7.98968 170.91 8.90348C172.68 9.81729 174.063 11.1342 175.058 12.8543C176.054 14.5476 176.552 16.5499 176.552 18.8613ZM168.255 16.8858C168.255 15.9183 167.923 15.1657 167.259 14.6282C166.595 14.0638 165.766 13.7816 164.77 13.7816C163.774 13.7816 162.959 14.0504 162.322 14.5879C161.686 15.0985 161.272 15.8645 161.078 16.8858H168.255Z" fill="#364FC7"/>
</svg>
